# 3ds Max Wavefront OBJ Exporter v0.97b - (c)2007 guruware
# File Created: 10.10.2015 04:01:13

mtllib 3d-model.mtl

#
# object Group_001
#

v  -15.0000 0.0000 -245.0699
v  -15.0000 0.0000 254.1300
v  -14.9999 595.0000 254.1300
v  -14.9999 595.0000 -245.0699
v  -15.0000 0.0000 319.0300
v  -15.0001 0.0000 819.4443
v  -14.9998 595.0000 819.4443
v  -14.9998 595.0000 319.0300
v  -15.0001 0.0000 -819.4446
v  -15.0000 0.0000 -316.9700
v  -14.9999 595.0000 -316.9700
v  -14.9999 595.0000 -819.4446
v  15.0001 595.0000 319.0300
v  15.0002 595.0000 819.4443
v  15.0001 595.0000 -245.0699
v  15.0000 0.0000 -245.0699
v  15.0001 595.0000 254.1300
v  14.9999 0.0000 -819.4446
v  15.0000 0.0000 -316.9700
v  14.9999 0.0000 819.4443
v  15.0000 0.0000 254.1300
v  15.0001 595.0000 -316.9700
v  15.0001 595.0000 -819.4446
v  15.0000 0.0000 319.0300
# 24 vertices

vn -1.0000 0.0000 0.0000
vn 0.0000 1.0000 -0.0000
vn -0.0000 0.0000 -1.0000
vn -0.0000 -1.0000 0.0000
vn -0.0000 0.0000 1.0000
# 5 vertex normals

vt 0.3505 0.0000 0.0000
vt 0.6551 0.0000 0.0000
vt 0.6551 0.9917 0.0000
vt 0.3505 0.9917 0.0000
vt 0.6947 0.0000 0.0000
vt 1.0000 -0.0000 0.0000
vt 1.0000 0.9917 0.0000
vt 0.6947 0.9917 0.0000
vt 0.0000 0.0000 0.0000
vt 0.3066 0.0000 0.0000
vt 0.3066 0.9917 0.0000
vt -0.0000 0.9917 0.0000
vt 0.0000 2.3427 0.0000
vt -0.1000 2.3427 0.0000
vt -0.1000 0.0000 0.0000
vt -0.0000 2.7854 0.0000
vt 0.1000 0.0000 0.0000
vt 0.1000 2.7854 0.0000
vt 0.0000 4.9834 0.0000
vt -0.1000 4.9834 0.0000
vt -0.1000 2.6465 0.0000
vt 0.0000 2.6465 0.0000
vt 0.1000 5.3200 0.0000
vt 0.1000 7.6723 0.0000
vt 0.0000 7.6723 0.0000
vt -0.0000 5.3200 0.0000
vt -0.1000 2.7854 0.0000
vt 0.1000 2.6465 0.0000
vt 0.1000 4.9834 0.0000
vt 0.1000 2.3427 0.0000
vt -0.1000 7.6723 0.0000
vt -0.1000 5.3200 0.0000
# 32 texture coords

g Group_001
usemtl wire_177028149
s off
f 1/1/1 2/2/1 3/3/1 4/4/1 
f 5/5/1 6/6/1 7/7/1 8/8/1 
f 9/9/1 10/10/1 11/11/1 12/12/1 
f 13/13/2 8/14/2 7/15/2 14/9/2 
f 15/16/3 16/9/3 1/17/3 4/18/3 
f 15/19/2 4/20/2 3/21/2 17/22/2 
f 10/23/4 9/24/4 18/25/4 19/26/4 
f 6/15/5 20/9/5 14/16/5 7/27/5 
f 2/28/4 1/29/4 16/19/4 21/22/4 
f 2/15/5 21/9/5 17/16/5 3/27/5 
f 10/15/5 19/9/5 22/16/5 11/27/5 
f 23/16/3 18/9/3 9/17/3 12/18/3 
f 20/9/4 6/17/4 5/30/4 24/13/4 
f 13/16/3 24/9/3 5/17/3 8/18/3 
f 23/25/2 12/31/2 11/32/2 22/26/2 
# 15 polygons

