{"asset":{"version":"2.0","generator":"babylon.js glTF exporter for Maya 2018 v20210113.2"},"scene":0,"scenes":[{"nodes":[0,1,2]}],"nodes":[{"mesh":0,"name":"Mesh"},{"mesh":1,"name":"Mesh1"},{"mesh":2,"name":"Mesh2"}],"meshes":[{"primitives":[{"attributes":{"POSITION":1,"TANGENT":2,"NORMAL":3,"TEXCOORD_0":4},"indices":0,"material":0}],"name":"Mesh"},{"primitives":[{"attributes":{"POSITION":6,"TANGENT":7,"NORMAL":8,"TEXCOORD_0":9},"indices":5,"material":0}],"name":"Mesh1"},{"primitives":[{"attributes":{"POSITION":11,"TANGENT":12,"NORMAL":13,"TEXCOORD_0":14},"indices":10,"material":0}],"name":"Mesh2"}],"accessors":[{"bufferView":0,"componentType":5123,"count":31860,"type":"SCALAR","name":"accessorIndices"},{"bufferView":1,"componentType":5126,"count":5564,"max":[0.00453756,0.0238598976,-0.02260937],"min":[-0.00453756,-0.00114606,-0.0316844881],"type":"VEC3","name":"accessorPositions"},{"bufferView":2,"componentType":5126,"count":5564,"type":"VEC4","name":"accessorTangents"},{"bufferView":1,"byteOffset":66768,"componentType":5126,"count":5564,"type":"VEC3","name":"accessorNormals"},{"bufferView":3,"componentType":5126,"count":5564,"type":"VEC2","name":"accessorUVs"},{"bufferView":0,"byteOffset":63720,"componentType":5123,"count":31860,"type":"SCALAR","name":"accessorIndices"},{"bufferView":1,"byteOffset":133536,"componentType":5126,"count":5564,"max":[0.0032988,0.01734609,-0.01487253],"min":[-0.0032988,-0.000833180035,-0.02147012],"type":"VEC3","name":"accessorPositions"},{"bufferView":2,"byteOffset":89024,"componentType":5126,"count":5564,"type":"VEC4","name":"accessorTangents"},{"bufferView":1,"byteOffset":200304,"componentType":5126,"count":5564,"type":"VEC3","name":"accessorNormals"},{"bufferView":3,"byteOffset":44512,"componentType":5126,"count":5564,"type":"VEC2","name":"accessorUVs"},{"bufferView":0,"byteOffset":127440,"componentType":5123,"count":31860,"type":"SCALAR","name":"accessorIndices"},{"bufferView":1,"byteOffset":267072,"componentType":5126,"count":5564,"max":[-0.00257622,0.0238598976,-0.01573754],"min":[-0.011651339,-0.00114606,-0.02481266],"type":"VEC3","name":"accessorPositions"},{"bufferView":2,"byteOffset":178048,"componentType":5126,"count":5564,"type":"VEC4","name":"accessorTangents"},{"bufferView":1,"byteOffset":333840,"componentType":5126,"count":5564,"type":"VEC3","name":"accessorNormals"},{"bufferView":3,"byteOffset":89024,"componentType":5126,"count":5564,"type":"VEC2","name":"accessorUVs"}],"bufferViews":[{"buffer":0,"byteLength":191160,"name":"bufferViewScalar"},{"buffer":0,"byteOffset":191160,"byteLength":400608,"byteStride":12,"name":"bufferViewFloatVec3"},{"buffer":0,"byteOffset":591768,"byteLength":267072,"byteStride":16,"name":"bufferViewFloatVec4"},{"buffer":0,"byteOffset":858840,"byteLength":133536,"byteStride":8,"name":"bufferViewFloatVec2"}],"buffers":[{"uri":"Spray Paint.bin","byteLength":992376}],"materials":[{"pbrMetallicRoughness":{"baseColorFactor":[0.5,0.5,0.5,1.0],"metallicFactor":0.0,"roughnessFactor":0.450053632},"name":"lambert1"}]}