{"asset":{"version":"2.0","generator":"babylon.js glTF exporter for Maya 2018 v20210113.2"},"scene":0,"scenes":[{"nodes":[0]}],"nodes":[{"mesh":0,"name":"Mesh"}],"meshes":[{"primitives":[{"attributes":{"POSITION":1,"TANGENT":2,"NORMAL":3,"TEXCOORD_0":4},"indices":0,"material":0}],"name":"Mesh"}],"accessors":[{"bufferView":0,"componentType":5123,"count":5856,"type":"SCALAR","name":"accessorIndices"},{"bufferView":1,"componentType":5126,"count":3902,"max":[0.004878,0.007144,0.00823862],"min":[-0.005122,0.0,-0.00780246966],"type":"VEC3","name":"accessorPositions"},{"bufferView":2,"componentType":5126,"count":3902,"type":"VEC4","name":"accessorTangents"},{"bufferView":1,"byteOffset":46824,"componentType":5126,"count":3902,"type":"VEC3","name":"accessorNormals"},{"bufferView":3,"componentType":5126,"count":3902,"type":"VEC2","name":"accessorUVs"}],"bufferViews":[{"buffer":0,"byteLength":11712,"name":"bufferViewScalar"},{"buffer":0,"byteOffset":11712,"byteLength":93648,"byteStride":12,"name":"bufferViewFloatVec3"},{"buffer":0,"byteOffset":105360,"byteLength":62432,"byteStride":16,"name":"bufferViewFloatVec4"},{"buffer":0,"byteOffset":167792,"byteLength":31216,"byteStride":8,"name":"bufferViewFloatVec2"}],"buffers":[{"uri":"Table.bin","byteLength":199008}],"materials":[{"pbrMetallicRoughness":{"baseColorFactor":[0.5,0.5,0.5,1.0],"metallicFactor":0.0,"roughnessFactor":0.450053632},"name":"lambert1"}]}