{"asset":{"version":"2.0","generator":"babylon.js glTF exporter for Maya 2018 v20210113.2"},"scene":0,"scenes":[{"nodes":[0]}],"nodes":[{"mesh":0,"name":"Layer0_001"}],"meshes":[{"primitives":[{"attributes":{"POSITION":1,"TANGENT":2,"NORMAL":3,"TEXCOORD_0":4},"indices":0,"material":0}],"name":"Layer0_001"}],"accessors":[{"bufferView":0,"componentType":5123,"count":3144,"type":"SCALAR","name":"accessorIndices"},{"bufferView":1,"componentType":5126,"count":912,"max":[-0.0394599773,0.0409497768,0.0240083],"min":[-0.07852927,0.00033768,-0.07199154],"type":"VEC3","name":"accessorPositions"},{"bufferView":2,"componentType":5126,"count":912,"type":"VEC4","name":"accessorTangents"},{"bufferView":1,"byteOffset":10944,"componentType":5126,"count":912,"type":"VEC3","name":"accessorNormals"},{"bufferView":3,"componentType":5126,"count":912,"type":"VEC2","name":"accessorUVs"}],"bufferViews":[{"buffer":0,"byteLength":6288,"name":"bufferViewScalar"},{"buffer":0,"byteOffset":6288,"byteLength":21888,"byteStride":12,"name":"bufferViewFloatVec3"},{"buffer":0,"byteOffset":28176,"byteLength":14592,"byteStride":16,"name":"bufferViewFloatVec4"},{"buffer":0,"byteOffset":42768,"byteLength":7296,"byteStride":8,"name":"bufferViewFloatVec2"}],"buffers":[{"uri":"Paint Farrow.bin","byteLength":50064}],"materials":[{"pbrMetallicRoughness":{"baseColorFactor":[0.5,0.5,0.5,1.0],"metallicFactor":0.0,"roughnessFactor":0.450053632},"name":"lambert1"}]}