{"asset":{"version":"2.0","generator":"babylon.js glTF exporter for Maya 2018 v20210113.2"},"scene":0,"scenes":[{"nodes":[0]}],"nodes":[{"mesh":0,"name":"Part1"}],"meshes":[{"primitives":[{"attributes":{"POSITION":1,"NORMAL":2},"indices":0,"material":0}],"name":"Part1"}],"accessors":[{"bufferView":0,"componentType":5123,"count":5256,"type":"SCALAR","name":"accessorIndices"},{"bufferView":1,"componentType":5126,"count":1935,"max":[0.0122412294,0.04605439,0.009632629],"min":[-0.00948817,0.00479803,-0.009861279],"type":"VEC3","name":"accessorPositions"},{"bufferView":1,"byteOffset":23220,"componentType":5126,"count":1935,"type":"VEC3","name":"accessorNormals"}],"bufferViews":[{"buffer":0,"byteLength":10512,"name":"bufferViewScalar"},{"buffer":0,"byteOffset":10512,"byteLength":46440,"byteStride":12,"name":"bufferViewFloatVec3"}],"buffers":[{"uri":"Easel.bin","byteLength":56952}],"materials":[{"pbrMetallicRoughness":{"baseColorFactor":[0.5,0.5,0.5,1.0],"metallicFactor":0.0,"roughnessFactor":0.450053632},"name":"lambert1"}]}