{"asset":{"version":"2.0","generator":"babylon.js glTF exporter for Maya 2018 v20210113.2"},"scene":0,"scenes":[{"nodes":[0]}],"nodes":[{"mesh":0,"name":"PaintPalleteArtSupplies_highres"}],"meshes":[{"primitives":[{"attributes":{"POSITION":1,"TANGENT":2,"NORMAL":3,"TEXCOORD_0":4},"indices":0,"material":0}],"name":"PaintPalleteArtSupplies_highres"}],"accessors":[{"bufferView":0,"componentType":5123,"count":3840,"type":"SCALAR","name":"accessorIndices"},{"bufferView":1,"componentType":5126,"count":890,"max":[0.202190012,0.04811745,0.156039327],"min":[-0.181067273,0.03435939,-0.09528017],"type":"VEC3","name":"accessorPositions"},{"bufferView":2,"componentType":5126,"count":890,"type":"VEC4","name":"accessorTangents"},{"bufferView":1,"byteOffset":10680,"componentType":5126,"count":890,"type":"VEC3","name":"accessorNormals"},{"bufferView":3,"componentType":5126,"count":890,"type":"VEC2","name":"accessorUVs"}],"bufferViews":[{"buffer":0,"byteLength":7680,"name":"bufferViewScalar"},{"buffer":0,"byteOffset":7680,"byteLength":21360,"byteStride":12,"name":"bufferViewFloatVec3"},{"buffer":0,"byteOffset":29040,"byteLength":14240,"byteStride":16,"name":"bufferViewFloatVec4"},{"buffer":0,"byteOffset":43280,"byteLength":7120,"byteStride":8,"name":"bufferViewFloatVec2"}],"buffers":[{"uri":"Palet.bin","byteLength":50400}],"materials":[{"pbrMetallicRoughness":{"baseColorFactor":[0.5,0.5,0.5,1.0],"metallicFactor":0.0,"roughnessFactor":0.450053632},"name":"lambert1"}]}