# This file uses centimeters as units for non-parametric coordinates.

mtllib Box.mtl
g default
v -7.824017 0.000000 -7.824017
v 7.824017 0.000000 -7.824017
v 7.824017 0.000000 7.824017
v -7.824017 0.000000 7.824017
v 7.622459 16.074646 -7.824017
v -7.465530 14.605026 -7.014420
v -7.951866 14.557648 0.962131
v 6.738201 7.405064 7.479313
v 7.637932 15.915726 7.983688
v -7.936394 14.398727 7.983688
v 7.796856 15.931213 7.824017
v 7.492691 7.797382 6.913956
v 7.796856 15.931213 -7.824017
v -7.450043 14.446106 -7.174095
v 7.637932 15.915726 -7.983688
v -6.729244 10.568439 -7.358120
v -7.983688 0.159674 -7.824017
v -7.983688 0.159674 7.824017
v -8.095318 14.383240 7.824017
v -8.095318 14.383240 1.140055
v -7.824017 0.159674 7.983688
v 7.983688 0.159674 7.824017
v 7.824017 0.159674 7.983688
v -7.824017 0.159674 -7.983688
v 7.824017 0.159674 -7.983688
v 7.983688 0.159674 -7.824017
v -7.951866 14.557648 7.824017
v 7.622459 16.074646 7.824017
v -7.608967 14.430618 -7.014420
v 7.333019 7.818298 7.073627
v -6.888916 10.778477 -7.198444
vt 0.972600 0.554900
vt 0.604900 0.554900
vt 0.604900 0.187200
vt 0.972600 0.187200
vt 0.506900 0.707100
vt 0.118600 0.707100
vt 0.118600 0.489000
vt 0.963500 0.213600
vt 0.990400 0.422100
vt 0.602100 0.422100
vt 0.601600 0.922000
vt 0.600500 0.744200
vt 0.989900 0.922000
vt 0.628200 0.477900
vt 0.239900 0.478000
vt 0.628200 0.347900
vt 0.021800 0.596200
vt 0.410400 0.597000
vt 0.410400 0.984900
vt 0.244400 0.984900
vt 0.416000 0.596200
vt 0.412600 0.591800
vt 0.598800 0.528900
vt 0.601600 0.533700
vt 0.596000 0.533700
vt 0.019000 0.591400
vt 0.016200 0.596200
vt 0.995500 0.533700
vt 0.989900 0.533700
vt 0.992700 0.528900
vt 0.437000 0.993100
vt 0.432200 0.995900
vt 0.432200 0.990300
vt 0.601500 0.988500
vt 0.601500 0.995600
vt 0.596700 0.991500
vt 0.043900 0.990300
vt 0.043900 0.995900
vt 0.039000 0.993100
vt 0.995000 0.991500
vt 0.990000 0.995600
vt 0.990000 0.988500
vt 0.628200 0.084000
vt 0.628200 0.089600
vt 0.239900 0.089600
vt 0.239900 0.084000
vt 0.989900 0.528100
vt 0.601600 0.528100
vt 0.990400 0.028200
vt 0.990400 0.033800
vt 0.602100 0.033800
vt 0.602100 0.028200
vt 0.602100 0.427700
vt 0.990400 0.427700
vt 0.239900 0.483600
vt 0.628200 0.483600
vt 0.261900 0.995900
vt 0.266300 0.990300
vt 0.593000 0.744700
vt 0.596000 0.922000
vt 0.416000 0.984900
vt 0.995500 0.922000
vt 0.016200 0.854800
vt 0.021800 0.860000
vt 0.410500 0.592100
vt 0.021800 0.590600
vt 0.985700 0.243000
vt 0.118600 0.318700
vt 0.506900 0.318700
vt 0.021800 0.984900
vt 0.016200 0.984900
vn -0.341590 -0.875575 -0.341590
vn 0.341590 -0.875575 -0.341590
vn 0.341590 -0.875575 0.341590
vn -0.341590 -0.875575 0.341590
vn 0.245294 0.904376 -0.349191
vn -0.425123 0.837046 -0.344419
vn -0.487519 0.872933 -0.017701
vn 0.286887 0.041698 0.957057
vn 0.338289 0.314390 0.886972
vn -0.355317 0.318415 0.878841
vn 0.866387 0.349795 0.356395
vn 0.930642 0.017401 0.365517
vn 0.858701 0.386000 -0.337100
vn -0.407590 0.305692 -0.860478
vn 0.300104 0.358905 -0.883813
vn -0.345092 0.049199 -0.937279
vn -0.880041 -0.304514 -0.364417
vn -0.874249 -0.344980 0.341580
vn -0.892655 0.294785 0.340983
vn -0.944780 0.326293 -0.030399
vn -0.340485 -0.342985 0.875461
vn -0.874249 -0.344980 0.341580
vn -0.341590 -0.875575 0.341590
vn 0.341590 -0.875575 0.341590
vn 0.886792 -0.292297 0.357997
vn 0.357191 -0.290893 0.887579
vn -0.341590 -0.875575 -0.341590
vn -0.880041 -0.304514 -0.364417
vn -0.356098 -0.296698 -0.886095
vn 0.337002 -0.333902 -0.880306
vn 0.880771 -0.332689 -0.336989
vn 0.341590 -0.875575 -0.341590
vn -0.355317 0.318415 0.878841
vn -0.424905 0.838309 0.341604
vn -0.892655 0.294785 0.340983
vn 0.866387 0.349795 0.356395
vn 0.255091 0.904569 0.341588
vn 0.338289 0.314390 0.886972
vn -0.905645 0.221611 -0.361518
vn -0.425123 0.837046 -0.344419
vn -0.407590 0.305692 -0.860478
vn 0.300104 0.358905 -0.883813
vn 0.245294 0.904376 -0.349191
vn 0.858701 0.386000 -0.337100
vn -0.341590 -0.875575 -0.341590
vn -0.356098 -0.296698 -0.886095
vn 0.337002 -0.333902 -0.880306
vn 0.341590 -0.875575 -0.341590
vn 0.341590 -0.875575 -0.341590
vn 0.880771 -0.332689 -0.336989
vn 0.886792 -0.292297 0.357997
vn 0.341590 -0.875575 0.341590
vn 0.341590 -0.875575 0.341590
vn 0.357191 -0.290893 0.887579
vn -0.340485 -0.342985 0.875461
vn -0.341590 -0.875575 0.341590
vn -0.424905 0.838309 0.341604
vn -0.355317 0.318415 0.878841
vn 0.338289 0.314390 0.886972
vn 0.255091 0.904569 0.341588
vn 0.245294 0.904376 -0.349191
vn 0.300104 0.358905 -0.883813
vn -0.407590 0.305692 -0.860478
vn -0.425123 0.837046 -0.344419
vn -0.487519 0.872933 -0.017701
vn -0.425123 0.837046 -0.344419
vn -0.905645 0.221611 -0.361518
vn -0.944780 0.326293 -0.030399
vn 0.646019 -0.012300 0.763222
vn 0.930642 0.017401 0.365517
vn 0.866387 0.349795 0.356395
vn 0.338289 0.314390 0.886972
vn -0.355317 0.318415 0.878841
vn -0.892655 0.294785 0.340983
vn -0.874249 -0.344980 0.341580
vn -0.340485 -0.342985 0.875461
vn 0.880771 -0.332689 -0.336989
vn 0.337002 -0.333902 -0.880306
vn 0.300104 0.358905 -0.883813
vn 0.858701 0.386000 -0.337100
vn -0.345092 0.049199 -0.937279
vn -0.356098 -0.296698 -0.886095
vn -0.880041 -0.304514 -0.364417
vn -0.901280 -0.031499 -0.432090
vn -0.341590 -0.875575 0.341590
vn -0.874249 -0.344980 0.341580
vn -0.880041 -0.304514 -0.364417
vn -0.341590 -0.875575 -0.341590
vn 0.255091 0.904569 0.341588
vn 0.866387 0.349795 0.356395
vn 0.858701 0.386000 -0.337100
vn 0.245294 0.904376 -0.349191
vn 0.357191 -0.290893 0.887579
vn 0.886792 -0.292297 0.357997
vn 0.930642 0.017401 0.365517
vn 0.646019 -0.012300 0.763222
vn 0.357191 -0.290893 0.887579
vn 0.646019 -0.012300 0.763222
vn 0.286887 0.041698 0.957057
vn -0.340485 -0.342985 0.875461
vn 0.357191 -0.290893 0.887579
vn 0.286887 0.041698 0.957057
vn -0.355317 0.318415 0.878841
vn 0.646019 -0.012300 0.763222
vn 0.338289 0.314390 0.886972
vn 0.286887 0.041698 0.957057
vn 0.930642 0.017401 0.365517
vn 0.880771 -0.332689 -0.336989
vn 0.858701 0.386000 -0.337100
vn 0.930642 0.017401 0.365517
vn 0.886792 -0.292297 0.357997
vn 0.880771 -0.332689 -0.336989
vn -0.944780 0.326293 -0.030399
vn -0.892655 0.294785 0.340983
vn -0.424905 0.838309 0.341604
vn -0.487519 0.872933 -0.017701
vn -0.424905 0.838309 0.341604
vn 0.255091 0.904569 0.341588
vn 0.245294 0.904376 -0.349191
vn -0.487519 0.872933 -0.017701
vn -0.944780 0.326293 -0.030399
vn -0.905645 0.221611 -0.361518
vn -0.901280 -0.031499 -0.432090
vn -0.901280 -0.031499 -0.432090
vn -0.905645 0.221611 -0.361518
vn -0.407590 0.305692 -0.860478
vn -0.345092 0.049199 -0.937279
vn 0.300104 0.358905 -0.883813
vn 0.337002 -0.333902 -0.880306
vn -0.345092 0.049199 -0.937279
vn -0.944780 0.326293 -0.030399
vn -0.901280 -0.031499 -0.432090
vn -0.880041 -0.304514 -0.364417
vn 0.337002 -0.333902 -0.880306
vn -0.356098 -0.296698 -0.886095
vn -0.345092 0.049199 -0.937279
s off
g Box1:cardboar_box_001
usemtl matierl_box
f 1/1/1 2/2/2 3/3/3 4/4/4
f 5/5/5 6/6/6 7/7/7
f 8/8/8 9/9/9 10/10/10
f 11/11/11 12/12/12 13/13/13
f 14/14/14 15/15/15 16/16/16
f 17/17/17 18/18/18 19/19/19 20/20/20
f 21/21/21 18/18/22 4/22/23
f 3/23/24 22/24/25 23/25/26
f 1/26/27 17/17/28 24/27/29
f 25/28/30 26/29/31 2/30/32
f 10/31/33 27/32/34 19/33/35
f 11/34/36 28/35/37 9/36/38
f 29/37/39 6/38/40 14/39/41
f 15/40/42 5/41/43 13/42/44
f 1/43/45 24/44/46 25/45/47 2/46/48
f 2/47/49 26/29/50 22/24/51 3/48/52
f 3/49/53 23/50/54 21/51/55 4/52/56
f 27/53/57 10/10/58 9/9/59 28/54/60
f 5/55/61 15/15/62 14/14/63 6/56/64
f 7/57/65 6/38/66 29/37/67 20/58/68
f 30/59/69 12/12/70 11/11/71 9/60/72
f 10/61/73 19/19/74 18/18/75 21/21/76
f 26/29/77 25/28/78 15/62/79 13/13/80
f 16/63/81 24/27/82 17/17/83 31/64/84
f 4/65/85 18/18/86 17/17/87 1/66/88
f 28/35/89 11/34/90 13/42/91 5/41/92
f 23/25/93 22/24/94 12/12/95 30/59/96
f 23/50/97 30/67/98 8/8/99
f 21/51/100 23/50/101 8/8/102 10/10/103
f 30/67/104 9/9/105 8/8/106
f 12/12/107 26/29/108 13/13/109
f 12/12/110 22/24/111 26/29/112
f 20/58/113 19/33/114 27/32/115 7/57/116
f 27/68/117 28/69/118 5/5/119 7/7/120
f 20/20/121 29/70/122 31/64/123
f 31/64/124 29/70/125 14/71/126 16/63/127
f 15/15/128 25/45/129 16/16/130
f 20/20/131 31/64/132 17/17/133
f 25/45/134 24/44/135 16/16/136
