{"asset":{"version":"2.0","generator":"babylon.js glTF exporter for Maya 2018 v20210113.2"},"scene":0,"scenes":[{"nodes":[0]}],"nodes":[{"mesh":0,"name":"Box1:cardboar_box_001"}],"meshes":[{"primitives":[{"attributes":{"POSITION":1,"TANGENT":2,"NORMAL":3,"TEXCOORD_0":4},"indices":0,"material":0}],"name":"Box1:cardboar_box_001"}],"accessors":[{"bufferView":0,"componentType":5123,"count":174,"type":"SCALAR","name":"accessorIndices"},{"bufferView":1,"componentType":5126,"count":71,"max":[0.07983688,0.160746455,0.07983688],"min":[-0.08095317,0.0,-0.07983688],"type":"VEC3","name":"accessorPositions"},{"bufferView":2,"componentType":5126,"count":71,"type":"VEC4","name":"accessorTangents"},{"bufferView":1,"byteOffset":852,"componentType":5126,"count":71,"type":"VEC3","name":"accessorNormals"},{"bufferView":3,"componentType":5126,"count":71,"type":"VEC2","name":"accessorUVs"}],"bufferViews":[{"buffer":0,"byteLength":348,"name":"bufferViewScalar"},{"buffer":0,"byteOffset":348,"byteLength":1704,"byteStride":12,"name":"bufferViewFloatVec3"},{"buffer":0,"byteOffset":2052,"byteLength":1136,"byteStride":16,"name":"bufferViewFloatVec4"},{"buffer":0,"byteOffset":3188,"byteLength":568,"byteStride":8,"name":"bufferViewFloatVec2"}],"buffers":[{"uri":"Box.bin","byteLength":3756}],"materials":[{"pbrMetallicRoughness":{"baseColorTexture":{"index":0},"metallicFactor":0.0,"roughnessFactor":0.450053632},"name":"material_box"}],"textures":[{"sampler":0,"source":0,"name":"abciuppa_w.jpg"}],"images":[{"uri":"abciuppa_w.jpg"}],"samplers":[{"magFilter":9729,"minFilter":9987}]}